<?xml version="1.0" encoding="utf-8"?>
<!-- Generator: Adobe Illustrator 24.2.0, SVG Export Plug-In . SVG Version: 6.00 Build 0)  -->
<svg version="1.1" id="Livello_1" xmlns="http://www.w3.org/2000/svg" xmlns:xlink="http://www.w3.org/1999/xlink" x="0px" y="0px"
	 viewBox="0 0 16 16" style="enable-background:new 0 0 16 16;" xml:space="preserve">
<style type="text/css">
	.st0{fill:#414558;}
</style>
<path class="st0" d="M4.7,3C5.2,3,5.6,3,6,3.1s0.7,0.2,1,0.4C7.2,3.7,7.4,4,7.6,4.3C7.7,4.6,7.8,5,7.8,5.4c0,0.5-0.1,0.9-0.4,1.2
	C7.2,7,6.9,7.3,6.4,7.5C7,7.7,7.5,8,7.8,8.4s0.5,1,0.5,1.6c0,0.5-0.1,0.9-0.3,1.3c-0.2,0.4-0.4,0.7-0.8,0.9
	c-0.3,0.2-0.7,0.4-1.1,0.5s-0.8,0.2-1.3,0.2H0V3H4.7z M4.4,7c0.4,0,0.7-0.1,1-0.3c0.2-0.2,0.4-0.5,0.4-0.9c0-0.2,0-0.4-0.1-0.6
	C5.5,5.1,5.4,5,5.3,4.9C5.1,4.8,5,4.7,4.8,4.7s-0.4,0-0.6,0h-2V7H4.4L4.4,7z M4.5,11.2c0.2,0,0.4,0,0.6-0.1c0.2,0,0.4-0.1,0.5-0.2
	s0.2-0.2,0.4-0.4c0.1-0.2,0.1-0.4,0.1-0.6C6.1,9.4,6,9,5.7,8.8C5.4,8.5,5,8.4,4.5,8.4H2.2v2.7L4.5,11.2L4.5,11.2L4.5,11.2z
	 M11.3,11.1c0.3,0.3,0.7,0.4,1.3,0.4c0.4,0,0.7-0.1,1-0.3s0.5-0.4,0.5-0.6h1.7c-0.3,0.9-0.7,1.5-1.3,1.8c-0.6,0.4-1.2,0.6-2.1,0.6
	c-0.5,0-1-0.1-1.5-0.3c-0.4-0.2-0.8-0.4-1.1-0.8c-0.3-0.3-0.6-0.7-0.7-1.2c-0.2-0.5-0.2-1-0.2-1.5s0.1-1,0.2-1.5
	c0.2-0.5,0.4-0.9,0.7-1.2c0.3-0.3,0.7-0.6,1.1-0.8c0.5-0.2,1-0.3,1.5-0.3c0.6,0,1.1,0.1,1.6,0.4c0.5,0.2,0.8,0.5,1.1,1
	c0.3,0.4,0.5,0.9,0.6,1.3C16,8.7,16,9.2,16,9.7h-5.1C10.8,10.3,11,10.8,11.3,11.1z M13.6,7.4C13.3,7.2,12.9,7,12.5,7
	c-0.3,0-0.6,0.1-0.8,0.2s-0.4,0.2-0.5,0.4C11.1,7.7,11,7.9,11,8.1c0,0.2-0.1,0.3-0.1,0.5h3.2C14,8,13.8,7.7,13.6,7.4L13.6,7.4z
	 M10.4,3.7h4v1h-4V3.7z"/>
</svg>
