<?xml version="1.0" encoding="utf-8"?>
<!-- Generator: Adobe Illustrator 24.2.0, SVG Export Plug-In . SVG Version: 6.00 Build 0)  -->
<svg version="1.1" id="Livello_1" xmlns="http://www.w3.org/2000/svg" xmlns:xlink="http://www.w3.org/1999/xlink" x="0px" y="0px"
	 viewBox="0 0 16 16" style="enable-background:new 0 0 16 16;" xml:space="preserve">
<style type="text/css">
	.st0{fill:#414558;}
</style>
<path class="st0" d="M8,0C5.8,0,5.6,0,4.7,0S3.3,0.2,2.8,0.4s-1,0.5-1.4,0.9c-0.5,0.4-0.8,0.9-1,1.5C0.2,3.3,0.1,3.8,0,4.7
	C0,5.6,0,5.8,0,8s0,2.4,0,3.3c0,0.9,0.2,1.4,0.4,1.9s0.5,1,0.9,1.4s0.9,0.7,1.4,0.9s1.1,0.3,1.9,0.4c0.9,0,1.1,0,3.3,0s2.4,0,3.3,0
	c0.9,0,1.4-0.2,1.9-0.4s1-0.5,1.4-0.9s0.7-0.9,0.9-1.4s0.3-1.1,0.4-1.9c0-0.9,0-1.1,0-3.3s0-2.4,0-3.3s-0.2-1.4-0.4-1.9
	s-0.5-1-0.9-1.4s-0.9-0.7-1.4-0.9S12,0.2,11.2,0.1S10.2,0,8,0L8,0L8,0z M7.3,1.4H8c2.1,0,2.4,0,3.2,0s1.2,0.2,1.5,0.3
	c0.4,0.1,0.6,0.3,0.9,0.6s0.5,0.5,0.6,0.9c0.1,0.3,0.2,0.7,0.3,1.5c0,0.8,0,1.1,0,3.2s0,2.4,0,3.2c0,0.8-0.2,1.2-0.3,1.5
	s-0.3,0.7-0.6,0.9c-0.3,0.3-0.5,0.5-0.9,0.6c-0.3,0.1-0.7,0.2-1.5,0.3c-0.8,0-1.1,0-3.2,0s-2.4,0-3.2,0s-1.2-0.2-1.5-0.3
	s-0.7-0.3-0.9-0.6c-0.3-0.3-0.5-0.6-0.6-0.9c-0.1-0.3-0.2-0.7-0.3-1.5c0-0.8,0-1.1,0-3.2s0-2.4,0-3.2s0.2-1.2,0.3-1.5
	c0.1-0.4,0.3-0.6,0.6-0.9s0.5-0.5,0.9-0.6c0.3,0,0.7-0.2,1.5-0.2C5.5,1.5,5.8,1.4,7.3,1.4L7.3,1.4z M12.3,2.8c-0.5,0-1,0.4-1,1
	s0.4,1,1,1l0,0c0.5,0,1-0.4,1-1S12.8,2.8,12.3,2.8z M8,3.9c-2.3,0-4.1,1.8-4.2,4c0,2.3,1.8,4.1,4,4.2h0.1c2.3,0,4.1-1.9,4-4.2
	C12,5.7,10.2,3.9,8,3.9z M8,5.3c1.5,0,2.7,1.2,2.7,2.7S9.5,10.7,8,10.7l0,0c-1.5,0-2.7-1.2-2.7-2.7S6.5,5.3,8,5.3z"/>
</svg>
