<?xml version="1.0" encoding="utf-8"?>
<!-- Generator: Adobe Illustrator 24.2.0, SVG Export Plug-In . SVG Version: 6.00 Build 0)  -->
<svg version="1.1" id="Livello_1" xmlns="http://www.w3.org/2000/svg" xmlns:xlink="http://www.w3.org/1999/xlink" x="0px" y="0px"
	 viewBox="0 0 411.9 195.6" style="enable-background:new 0 0 411.9 195.6;" xml:space="preserve">
<style type="text/css">
	.st0{stroke:#FFFFFF;stroke-width:12;stroke-miterlimit:10;}
</style>
<g id="Livello_2_1_">
	<g id="Livello_1-2">
		<path class="st0" d="M269,189.6H38.4c-24.9,0-40.4-26.9-28-48.5l68.7-119c12.4-21.5,43.5-21.5,55.9,0l10,17.2
			c2.8,4.8,8.9,6.5,13.7,3.7c1.5-0.9,2.8-2.1,3.7-3.7l10-17.2c12.4-21.5,43.5-21.5,55.9,0L254.7,68"/>
		<path class="st0" d="M276,31.1l-58.3,101.1c-14.7,25.5,3.7,57.4,33.2,57.4h116.7c29.5,0,47.9-31.9,33.2-57.4L342.4,31.1
			C327.6,5.6,290.8,5.6,276,31.1z"/>
	</g>
</g>
</svg>
